<svg width="121" height="48" viewBox="0 0 121 48" fill="none" xmlns="http://www.w3.org/2000/svg">
<path d="M0 29.7483V25.5913L22.7116 14.0298V22.4736L11.4199 27.5399L22.7116 33.1258V41.3748L0 29.7483Z" fill="#D81E5B"/>
<path d="M27.8441 48L39.0716 0H47.1554L35.992 48H27.8441Z" fill="#D81E5B"/>
<path d="M52.8012 34.0352V12.4709C53.1861 9.39648 54.4906 6.69012 56.7147 4.35183C59.0672 1.92693 61.9542 0.714479 65.3759 0.714479V9.8728C63.5368 9.9161 62.4033 10.8038 61.9756 12.5359C61.8901 12.9256 61.8473 13.2503 61.8473 13.5101V34.0352C61.8901 35.8106 62.8738 36.9797 64.7985 37.5426C65.0551 37.6292 65.2476 37.6725 65.3759 37.6725V46.8309C62.8952 46.8309 60.4145 45.9432 57.9337 44.1678C54.5548 41.6563 52.8439 38.2788 52.8012 34.0352ZM68.8404 46.8309V37.6725C69.3109 37.6725 69.9097 37.2828 70.6368 36.5034C71.2784 35.7673 71.5992 34.9878 71.5992 34.1651V32.0216H68.8404V23.5778H80.7094V35.0744C80.7094 37.7591 79.3408 40.4005 76.6034 42.9986C73.9943 45.5101 71.4067 46.7875 68.8404 46.8309ZM68.8404 9.8728V0.714479C72.0055 0.714479 74.8284 2.10014 77.3091 4.87145C79.576 7.33965 80.7094 10.046 80.7094 12.9905L71.8558 16.3031V13.77C71.8558 11.7348 71.0859 10.479 69.5461 10.0027C69.2895 9.9161 69.0543 9.8728 68.8404 9.8728Z" fill="#D81E5B"/>
<path d="M84.8155 41.9594C84.8155 40.0108 85.6495 38.5602 87.3176 37.6076C88.0447 37.2179 88.8146 37.023 89.6273 37.023C91.552 37.023 92.9634 37.8674 93.8616 39.5562C94.2466 40.2923 94.439 41.0934 94.439 41.9594C94.439 43.9513 93.5836 45.3802 91.8727 46.2463C91.1456 46.636 90.3971 46.8309 89.6273 46.8309C87.6598 46.8309 86.2483 45.9648 85.3929 44.2327C85.008 43.4966 84.8155 42.7388 84.8155 41.9594Z" fill="#D81E5B"/>
<path d="M98.2884 41.3748V33.1258L109.58 27.5399L98.2884 22.4736V14.0298L121 25.5913V29.7483L98.2884 41.3748Z" fill="#D81E5B"/>
</svg>
